<?xml version="1.0" encoding="UTF-8"?>
<svg id="Layer_2" data-name="Layer 2" xmlns="http://www.w3.org/2000/svg" viewBox="0 0 1989.49 308.62">
  <defs>
    <style>
      .cls-1 {
        fill: #fff;
        stroke-width: 0px;
      }
    </style>
  </defs>
  <g id="Layer_1-2" data-name="Layer 1">
    <g>
      <path class="cls-1" d="M1989.49,22.93c-3.68,13.02-7.49,26.01-11.02,39.07-14.99,55.33-29.94,110.66-44.75,166.04-.91,3.4-2.22,4.42-5.68,4.36-13.49-.21-26.98-.17-40.47-.02-3.17.04-4.52-.77-5.34-4.11-11.75-47.61-23.69-95.17-35.59-142.75-.4-1.6-.82-3.2-2.15-4.98-12.39,50.44-24.78,100.88-37.22,151.52h-50.3c-19.75-74.43-39.49-148.84-59.35-223.69h49.57c11.76,50.44,23.52,100.87,35.28,151.31.31,0,.62-.01.93-.02,12.9-50.42,25.8-100.85,38.74-151.43h46.53c12.69,51.04,25.4,102.13,38.1,153.22.28.05.56.1.83.15,1.63-6.62,3.31-13.23,4.89-19.87,10.32-43.19,20.66-86.37,30.81-129.6.77-3.28,1.94-4.27,5.21-4.23,13.66.16,27.31.06,40.97.05v14.95Z"/>
      <path class="cls-1" d="M1069.95,0c1.57.79,3.05,1.92,4.71,2.31,17.32,4.07,33,11.46,46.23,23.38,10.12,9.12,16.86,20.51,22.34,33.06,6.36,14.56,6.24,29.64,4.65,44.46-1.21,11.28-5.26,22.56-9.74,33.12-6.03,14.23-15.86,26.06-28.42,35.32-1.46,1.08-4.62,1.54-6.06.69-6.29-3.7-12.24-8-18.32-12.07-2.61-1.75-3.35-3.27-1.16-6.4,12.39-17.68,17.92-37.45,15.22-58.87-2.45-19.4-10.46-35.88-30.1-43.51-18.86-7.33-45.07-4.04-59.45,12.48-6.36,7.31-10.05,16.13-10.92,25.72-2.12,23.38,5.88,43.22,21.84,60.22,13.3,14.18,29.9,23.66,46.52,33.13,13.45,7.66,26.62,15.65,38.32,25.96,9.36,8.25,16.06,18.24,18.04,30.21,2.4,14.51-1.36,28.43-9.87,40.59-9,12.84-21.72,20.21-36.51,25.39-13.16,4.61-26.49,3.69-39.29,2.16-11.3-1.35-22.61-6.14-32.16-13.45-9.63-7.38-16.66-16.55-20.08-28.33-4.18-14.42.4-26.94,8.75-38.32,7.13-9.72,7.46-9.5,17.9-3.64,2.46,1.38,4.71,3.24,7.29,4.3,4.16,1.71,4.04,3.88,1.28,6.67-5.13,5.18-8.02,11.31-8.26,18.64-.49,15.44,5.04,24.79,19.35,31.04,13.45,5.88,27.33,6.43,40.41-.7,14.7-8.02,17.58-16.79,14.4-33.48-3.11-16.32-15.5-25.68-29.02-33.51-20.84-12.08-42.24-23.27-62.49-36.26-16.6-10.65-29.31-25.49-36.48-44.31-6.9-18.1-8.61-37.04-5.63-55.88,2.27-14.34,7.1-28.43,15.96-40.39,10.98-14.82,24.78-26.35,42.4-32.7,5.45-1.96,11.1-3.38,16.62-5.17,1-.33,1.82-1.22,2.72-1.86,12.99,0,25.99,0,38.98,0Z"/>
      <path class="cls-1" d="M381.45,8c15.73,0,31.03-.13,46.33.18,1.69.03,3.84,2.2,4.91,3.91,29.34,46.87,58.56,93.81,87.81,140.73.92,1.48,1.96,2.88,3.71,5.46V8.38h46.5v223.94c-10.04,0-19.98.05-29.92-.02-6.46-.04-14.03,1.77-19.08-.96-4.85-2.63-7.16-10-10.5-15.35-26.62-42.7-53.21-85.41-79.82-128.11-1-1.61-2.04-3.2-3.96-4.49v148.57h-46V8Z"/>
      <path class="cls-1" d="M1705.28,120.96c-.71,30.58-8.54,58.53-29.05,81.88-17.18,19.57-39.25,30.25-65,33.42-22.19,2.73-43.89.83-64.51-8.33-28.26-12.56-46.89-34.09-56.07-63.26-12.29-39.05-9.74-77.19,11.54-112.74,17.15-28.65,43.46-44.05,76.54-47.98,23.64-2.8,46.55-.27,67.89,10.93,32.54,17.08,49.35,45.31,55.87,80.39,1.57,8.45,1.89,17.12,2.79,25.69ZM1655.34,118.9c-.4-4.19-.72-10.84-1.74-17.38-2.34-15-7.62-28.72-18-40.27-21.36-23.77-78.48-26.42-95.74,21.26-8.86,24.5-9.4,49.53-.89,74.17,7.78,22.51,23.27,36.79,47.88,39.3,25.1,2.55,46.61-6.62,58.84-30.33,7.17-13.91,9.28-28.92,9.65-46.75Z"/>
      <path class="cls-1" d="M368.61,190.35v41.69h-170.21V8.33h167.56v41.48h-118.14v47.69h108.33v38.03h-108.3v54.82h120.76Z"/>
      <path class="cls-1" d="M827.61,190.45h120.62v41.58h-170.06V8.38h167.45v41.32h-118.03v47.88h108.22v37.85h-108.19v55.02Z"/>
      <path class="cls-1" d="M181.36,74.56h-47.4c-.19-1.35-.38-2.61-.56-3.87-1.93-13.61-9.05-22.98-22.53-26.88-11.87-3.43-23.93-4.23-35.95-.9-14.44,4.01-21.84,16-18.71,29.39,1.56,6.66,6.36,10.22,12.05,12.22,10.78,3.8,21.77,7.07,32.79,10.14,12.79,3.57,25.78,6.42,38.54,10.08,15.23,4.37,28.28,12.39,38.15,25.01,19.35,24.74,14.15,65.41-10.99,86.29-13.86,11.52-30.18,17.24-47.75,19.68-23.91,3.33-47.57,2.25-70.29-6.54-25.86-10-42.82-27.97-47.7-55.93-.63-3.58-.7-7.27-.97-10.91-.1-1.3-.02-2.61-.02-4.26h47.63c.34,2.97.46,6.09,1.07,9.11,2.43,12.01,9.05,21.12,20.28,26.1,18.52,8.21,37.54,8.38,56.25.86,12.9-5.18,18.5-16.74,15.23-28.85-1.94-7.2-7.11-11.95-13.45-14.5-10.89-4.37-22.18-7.8-33.41-11.26-14.59-4.49-29.51-8-43.85-13.16-7.98-2.87-15.81-7.31-22.42-12.64C2.73,93.87.52,55.45,21.96,30.84c13.7-15.72,31.65-23.39,51.71-26.44,22.08-3.36,43.89-1.57,64.79,6.6,28.23,11.02,44.32,34.96,42.9,63.56Z"/>
      <path class="cls-1" d="M579.47,157.76c15.74,0,30.53-.06,45.31.13,1.03.01,2.74,1.69,2.94,2.81,4.21,23.35,12.63,32.59,35.09,37.16,14.47,2.94,28.89,2.24,42.57-3.8,12.52-5.53,18.02-16.68,14.86-28.65-1.86-7.03-6.79-11.79-12.96-14.29-11.03-4.47-22.45-8.01-33.83-11.53-14.58-4.51-29.52-7.98-43.85-13.17-8.13-2.94-15.98-7.59-22.83-12.91-26.19-20.33-24.48-61.02-5.18-82.63,13.63-15.25,30.98-23.15,50.74-26.24,24.34-3.82,48.29-1.97,70.76,8.57,24,11.26,37.21,30.33,38.16,57.21.04.99,0,1.99-.05,2.98-.02.29-.23.58-.47,1.13h-47.08c-.24-1.74-.42-3.5-.73-5.23-2.33-13.17-9.68-21.97-22.73-25.61-11.73-3.28-23.62-4.07-35.48-.79-14.46,3.99-21.89,15.95-18.82,29.33,1.53,6.68,6.32,10.2,11.99,12.28,9.49,3.47,19.18,6.45,28.93,9.15,14.08,3.9,28.35,7.1,42.4,11.09,15.25,4.33,28.29,12.35,38.18,24.95,19.38,24.7,14.23,65.4-10.87,86.31-13.85,11.53-30.16,17.27-47.74,19.72-23.91,3.34-47.56,2.27-70.29-6.49-25.87-9.98-42.9-27.9-47.74-55.87-.84-4.86-.84-9.85-1.3-15.58Z"/>
      <path class="cls-1" d="M1319.66,8.3v41.46h-108.4v51.81h93.66v38.04h-93.81v92.37h-49.05V8.3h157.6Z"/>
      <path class="cls-1" d="M1376.74,190.44h109.62v41.61h-158.52V8.34h48.9v182.11Z"/>
    </g>
  </g>
</svg>