<?xml version="1.0" encoding="UTF-8"?>
<svg id="Layer_2" data-name="Layer 2" xmlns="http://www.w3.org/2000/svg" viewBox="0 0 1480.57 440.27">
  <defs>
    <style>
      .cls-1 {
        fill: #000;
        stroke-width: 0px;
      }
    </style>
  </defs>
  <g id="Layer_1-2" data-name="Layer 1">
    <g>
      <path class="cls-1" d="M1233.95,150.39c5.44,58.92,10.8,117.07,16.39,177.57,2.41-4.27,3.81-6.54,5.01-8.91,27.53-53.93,55.11-107.84,82.44-161.88,2.56-5.06,5.42-6.99,11.19-6.92,25.79.33,51.59.14,78.56.14-1.41,3.09-2.27,5.34-3.41,7.44-48.69,89.7-97.44,179.37-146.01,269.13-2.41,4.45-4.88,6.23-10.06,6.17-23.21-.31-46.43-.13-70.36-.13-5.61-52.63-11.15-104.74-16.93-159.01-2.51,4.09-4,6.33-5.3,8.67-26.67,47.99-53.38,95.96-79.88,144.04-2.52,4.58-5.22,6.54-10.69,6.45-22.97-.35-45.95-.15-70.01-.15-11.3-94.04-22.57-187.79-33.91-282.12h78.15c5.2,59.96,10.39,119.9,15.59,179.84.48.17.97.35,1.45.52,1.43-2.53,2.91-5.04,4.29-7.6,29.98-55.57,60-111.13,89.82-166.78,2.48-4.64,5.14-6.73,10.67-6.61,17.5.39,35.02.14,53.03.14Z"/>
      <path class="cls-1" d="M395.33,432.7h-77.61c15.03-71.33,29.97-142.25,45.15-214.32h-57c3.15-15.52,6.02-29.81,8.96-44.08,1.25-6.06,3.02-12.03,3.83-18.14.62-4.64,2.66-5.91,7.08-5.85,14.98.21,29.98-.22,44.96.22,5.68.17,7.47-2,8.55-7.12,3.61-17.13,6.42-34.57,11.82-51.15,17.35-53.26,59.19-84.03,115.97-86.38,19.11-.79,38.15-.13,57.47,6.09-4.93,22.86-9.78,45.38-14.13,65.56-16.06-.35-30.95-1.79-45.65-.71-18.67,1.38-31.76,12.35-38.03,29.74-4.95,13.72-7.94,28.15-12.13,43.45h80.56c-4.99,23.14-9.75,45.18-14.65,67.88h-79.79c-15.15,71.75-30.19,142.98-45.35,214.8Z"/>
      <path class="cls-1" d="M953.73,303.19c-1.22,41.21-26.93,90.67-84.24,119.68-40.35,20.43-83.83,22.51-126.63,8.13-45.9-15.42-72.02-50.05-81.37-96.33-12.61-62.45,8.27-125.16,63.14-163.34,33.87-23.57,72.23-29.18,112.39-25.66,77.11,6.77,118.22,71.28,116.7,157.52ZM721.6,299.88c.18,3.11.33,7.75.74,12.37,2.89,32.65,23.18,57.82,53.45,65.69,16.02,4.17,32.24,4.09,48.25-.22,44.48-11.98,72.91-57.53,66.55-105.49-4.04-30.47-17.76-53.67-47.55-64.85-16.56-6.21-33.88-6.65-51.12-2.73-42.07,9.57-70.46,47.51-70.32,95.23Z"/>
      <path class="cls-1" d="M139.3,0c80.54,1.98,140.06,62.07,139.57,139.35-.51,79.98-59.75,138.77-139.78,138.89C59.54,278.36.51,217.08,0,139.54-.5,63.15,60.21,1.37,139.3,0ZM139.61,225.58c46.1-.21,84.35-39.64,84.02-86.6-.33-47.33-38.69-86.43-84.56-86.2-46.12.24-83.89,39.35-83.76,86.75.13,47.44,38.16,86.26,84.3,86.05Z"/>
      <path class="cls-1" d="M686.72,9.43c-30.09,141.69-59.97,282.43-89.85,423.13h-77.64c29.99-141.24,59.88-282.02,89.84-423.13h77.65Z"/>
      <path class="cls-1" d="M76.9,371.99c-.25-34.56,27.8-62.37,63.2-62.66,32.37-.27,61.35,28.42,61.67,61.07.35,34.85-27.7,63.64-62.06,63.71-34.74.07-62.56-27.44-62.81-62.12Z"/>
      <path class="cls-1" d="M1423.8,324.49c32.29-.04,56.83,24.46,56.77,56.69-.06,31.7-24.69,56.29-56.43,56.35-32.12.05-56.84-24.67-56.78-56.78.05-31.75,24.59-56.21,56.45-56.25Z"/>
    </g>
  </g>
</svg>